<svg width="38" height="38" viewBox="0 0 38 38" fill="none" xmlns="http://www.w3.org/2000/svg">
<path d="M31.9188 0H6.08119C2.72264 0 0 2.72264 0 6.08119V31.9188C0 35.2774 2.72264 38 6.08119 38H31.9188C35.2774 38 38 35.2774 38 31.9188V6.08119C38 2.72264 35.2774 0 31.9188 0Z" fill="#323232"/>
<path d="M19.8659 16.4125H22.4536L22.1252 19.0002H19.8659V26.7734H16.5018V19.0102H14.6805V16.4125H16.5018V14.6707C16.5018 13.5361 16.7905 12.6802 17.3478 12.1228C17.9151 11.5256 18.8607 11.2271 20.1844 11.2271H22.4536V13.8148H21.0802C20.5626 13.8148 20.2242 13.9044 20.065 14.0636C19.9256 14.2229 19.8659 14.4916 19.8659 14.8698V16.4125Z" fill="#FCFCFC"/>
</svg>
