<svg width="38" height="38" viewBox="0 0 38 38" fill="none" xmlns="http://www.w3.org/2000/svg">
<path d="M31.9188 0H6.08119C2.72264 0 0 2.72264 0 6.08119V31.9188C0 35.2774 2.72264 38 6.08119 38H31.9188C35.2774 38 38 35.2774 38 31.9188V6.08119C38 2.72264 35.2774 0 31.9188 0Z" fill="#323232"/>
<path d="M21.11 19.08C21.11 19.7165 20.8571 20.327 20.4071 20.7771C19.957 21.2272 19.3465 21.48 18.71 21.48C18.0735 21.48 17.463 21.2272 17.0129 20.7771C16.5628 20.327 16.31 19.7165 16.31 19.08C16.31 18.4435 16.5628 17.8331 17.0129 17.383C17.463 16.9329 18.0735 16.68 18.71 16.68C19.3465 16.68 19.957 16.9329 20.4071 17.383C20.8571 17.8331 21.11 18.4435 21.11 19.08ZM22.41 19.08C22.41 18.5954 22.3145 18.1156 22.1291 17.6679C21.9437 17.2202 21.6719 16.8134 21.3292 16.4708C20.9866 16.1281 20.5798 15.8563 20.1321 15.6709C19.6844 15.4855 19.2046 15.39 18.72 15.39C18.2354 15.39 17.7556 15.4855 17.3079 15.6709C16.8602 15.8563 16.4534 16.1281 16.1108 16.4708C15.7681 16.8134 15.4963 17.2202 15.3109 17.6679C15.1254 18.1156 15.03 18.5954 15.03 19.08C15.03 20.0587 15.4188 20.9972 16.1108 21.6892C16.8028 22.3813 17.7413 22.77 18.72 22.77C19.6986 22.77 20.6372 22.3813 21.3292 21.6892C22.0212 20.9972 22.41 20.0587 22.41 19.08ZM23.41 15.24C23.41 15.0137 23.3208 14.7964 23.1617 14.6354C23.0025 14.4744 22.7863 14.3827 22.56 14.38C22.4462 14.3787 22.3333 14.4 22.2278 14.4426C22.1223 14.4852 22.0263 14.5484 21.9454 14.6283C21.8645 14.7083 21.8002 14.8036 21.7564 14.9086C21.7126 15.0136 21.69 15.1262 21.69 15.24C21.69 15.72 22.08 16.1 22.56 16.1C23.03 16.1 23.42 15.72 23.42 15.24H23.41ZM18.71 13.18C19.76 13.18 22.01 13.09 22.96 13.47C23.29 13.6 23.53 13.76 23.78 14.01C24.04 14.26 24.2 14.51 24.33 14.84C24.7 15.78 24.62 18.04 24.62 19.08C24.62 20.13 24.7 22.38 24.32 23.33C24.2 23.66 24.04 23.9 23.78 24.16C23.53 24.41 23.28 24.56 22.96 24.7C22.01 25.07 19.76 24.99 18.71 24.99C17.66 24.99 15.41 25.07 14.46 24.69C14.1519 24.5741 13.8722 24.3933 13.64 24.16C13.4019 23.9258 13.2176 23.6426 13.1 23.33C12.72 22.38 12.8 20.13 12.8 19.08C12.8 18.03 12.72 15.78 13.1 14.84C13.23 14.51 13.39 14.26 13.64 14.01C13.89 13.76 14.14 13.6 14.46 13.47C15.41 13.09 17.66 13.17 18.71 13.17V13.18ZM25.91 19.08C25.91 18.09 25.92 17.11 25.86 16.11C25.8833 14.9904 25.4669 13.9062 24.7 13.09C23.8839 12.3231 22.7997 11.9067 21.68 11.93C20.69 11.87 19.71 11.88 18.71 11.88C17.71 11.88 16.73 11.88 15.74 11.93C14.6203 11.9067 13.5361 12.3231 12.72 13.09C11.9531 13.9062 11.5367 14.9904 11.56 16.11C11.5 17.11 11.51 18.09 11.51 19.08C11.51 20.08 11.51 21.06 11.56 22.06C11.5393 23.1762 11.9556 24.2564 12.72 25.07C13.5345 25.8405 14.6189 26.2607 15.74 26.24C16.74 26.29 17.72 26.28 18.71 26.28C19.71 26.28 20.69 26.29 21.68 26.24C22.8011 26.2607 23.8854 25.8405 24.7 25.07C25.4644 24.2564 25.8807 23.1762 25.86 22.06C25.92 21.06 25.91 20.08 25.91 19.08Z" fill="#FCFCFC"/>
</svg>
