<svg width="38" height="38" viewBox="0 0 38 38" fill="none" xmlns="http://www.w3.org/2000/svg">
<path d="M31.9188 0H6.08119C2.72264 0 0 2.72264 0 6.08119V31.9188C0 35.2774 2.72264 38 6.08119 38H31.9188C35.2774 38 38 35.2774 38 31.9188V6.08119C38 2.72264 35.2774 0 31.9188 0Z" fill="#323232"/>
<path d="M27 13.0067C26.3036 13.4585 25.5324 13.804 24.7164 14.0299C24.2784 13.5668 23.6962 13.2386 23.0488 13.0896C22.4013 12.9406 21.7196 12.9781 21.0961 13.197C20.4725 13.4158 19.937 13.8055 19.5622 14.3133C19.1873 14.8211 18.9911 15.4225 19 16.0362V16.705C17.7219 16.7354 16.4555 16.4748 15.3135 15.9462C14.1714 15.4177 13.1893 14.6376 12.4545 13.6755C12.4545 13.6755 9.54545 19.6943 16.0909 22.3694C14.5931 23.3043 12.8088 23.773 11 23.7069C17.5455 27.0507 25.5455 23.7069 25.5455 16.0161C25.5448 15.8299 25.5253 15.644 25.4873 15.4611C26.2295 14.788 26.7533 13.9381 27 13.0067Z" fill="#FCFCFC"/>
</svg>
