<svg width="38" height="38" viewBox="0 0 38 38" fill="none" xmlns="http://www.w3.org/2000/svg">
<path d="M31.9188 0H6.08119C2.72264 0 0 2.72264 0 6.08119V31.9188C0 35.2774 2.72264 38 6.08119 38H31.9188C35.2774 38 38 35.2774 38 31.9188V6.08119C38 2.72264 35.2774 0 31.9188 0Z" fill="#323232"/>
<path d="M26.7263 14.9164C26.6321 14.543 26.441 14.2012 26.1721 13.9255C25.9033 13.6498 25.5664 13.4501 25.1955 13.3466C23.8403 13.0151 18.429 13.0151 18.429 13.0151C18.429 13.0151 13.0178 13.0151 11.6625 13.3759C11.2916 13.4794 10.9547 13.6791 10.6859 13.9548C10.4171 14.2304 10.2259 14.5723 10.1318 14.9456C9.88511 16.3195 9.76436 17.7131 9.77101 19.1089C9.76126 20.5226 9.87826 21.9266 10.1318 23.3014C10.2333 23.6658 10.4278 23.9975 10.6962 24.2641C10.9645 24.5308 11.2975 24.7231 11.6625 24.8224C13.0178 25.1831 18.429 25.1831 18.429 25.1831C18.429 25.1831 23.8403 25.1831 25.1955 24.8224C25.5676 24.7181 25.9053 24.5169 26.1742 24.2394C26.4432 23.9619 26.6337 23.618 26.7263 23.2429C27.2215 20.4895 27.2215 17.6698 26.7263 14.9164Z" fill="#FCFCFC"/>
<path d="M16.6643 21.0589C16.6643 21.3221 16.947 21.4879 17.181 21.3514L20.652 19.3819C20.7046 19.3508 20.7481 19.3066 20.7784 19.2536C20.8086 19.2006 20.8246 19.1406 20.8246 19.0796C20.8246 19.0186 20.8086 18.9586 20.7784 18.9056C20.7481 18.8526 20.7046 18.8084 20.652 18.7774L17.181 16.7981C17.1285 16.7677 17.069 16.7515 17.0083 16.751C16.9477 16.7505 16.8879 16.7657 16.8349 16.7951C16.7818 16.8246 16.7373 16.8673 16.7057 16.9191C16.6741 16.9709 16.6565 17.03 16.6545 17.0906V21.0589H16.6643Z" fill="#323232"/>
</svg>
